<svg height="512" viewBox="0 0 64 64" width="512" xmlns="http://www.w3.org/2000/svg"><g id="Icons"><g><g><path d="m36 28-4-6h-24v14h48v-8z" fill="#288cb4"/></g><g><path d="m46 53.981c-2.423-1.827-4-4.719-4-7.981 0-5.514 4.486-10 10-10 1.422 0 2.774.303 4 .841v-4.841h-48v24h38z" fill="#64c8f0"/></g><g><path d="m8 32h4v24h-4z" fill="#46aad2"/></g><g><path d="m46 4h-34v28h40v-22z" fill="#f0f0f0"/></g><g><path d="m12 4h4v28h-4z" fill="#d2d2d2"/></g><g><path d="m52 10-6-6v6z" fill="#d2d2d2"/></g><g><path d="m20 8h24v4h-24z" fill="#fa6450"/></g><g><path d="m20 16h24v2h-24z" fill="#505050"/></g><g><path d="m20 20h24v2h-24z" fill="#505050"/></g><g><path d="m20 24h24v2h-24z" fill="#505050"/></g><g><path d="m20 28h24v2h-24z" fill="#505050"/></g><g><path d="m48 52v8l4-4 4 4v-8z" fill="#fa6450"/></g><g><path d="m50 52h-2v8l2-2z" fill="#dc4632"/></g><g><circle cx="52" cy="46" fill="#fab400" r="8"/></g><g><path d="m45.983 46c0-4.082 3.059-7.443 7.009-7.932-.326-.041-.656-.068-.992-.068-4.418 0-8 3.582-8 8s3.582 8 8 8c.336 0 .666-.027.991-.068-3.949-.489-7.008-3.85-7.008-7.932z" fill="#dc9600"/></g><g><path d="m57 44-6 6-4-4 2-2 2 2 4-4z" fill="#f0f0f0"/></g></g></g></svg>