<svg id="Layer_1" enable-background="new 0 0 510 510" height="512" viewBox="0 0 510 510" width="512" xmlns="http://www.w3.org/2000/svg"><g><g><path d="m510 255c0 115.812-77.204 213.591-182.953 244.68-22.847 6.716-291.443-393.657-235.475-440.434 44.255-36.986 101.242-59.246 163.428-59.246 140.833 0 255 114.167 255 255z" fill="#d5f1fe"/></g><g><path d="m56.963 415.631c47.977 59.078 120.119 94.369 198.037 94.369 44.982 0 78.87-12.452 77.713-12.076 12.808-4.166 11.921-22.612-1.238-25.48-.42-.091-.839-.184-1.258-.277-15.4-3.439-12.932-26.086 2.848-26.086h90.771c20.878-18.462 38.706-40.29 52.636-64.637 7.997-13.977 12.106-29.841 12.106-45.943v-147.84c0-9.004-7.299-16.304-16.304-16.304h-231.562c-2.981 0-5.209-2.468-5.269-5.449-.058-2.899-2.426-5.231-5.339-5.231h-28.887c-2.981 0-5.209 2.468-5.269 5.449-.058 2.899-2.426 5.231-5.339 5.231h-3.252c-2.949 0-5.34-2.391-5.34-5.34v-14.892c0-2.949-2.391-5.34-5.34-5.34-16.84 0-27.97-17.588-20.677-32.767.28-.583.563-1.165.847-1.746 20.126-41.079-29.589-82.303-66.73-50.78-57.237 48.558-90.117 119.362-90.117 194.508 0 60.749 21.314 116.734 56.963 160.631z" fill="#93dcfc"/></g><g><g><path d="m90.67 160.226h69.115v37.378h-69.115z" fill="#4275d1"/></g><g><path d="m173.717 175.118h39.494v21.359h-39.494z" fill="#e04955"/></g><g><path d="m34.729 185.798h431.614v274.723h-431.614z" fill="#a2dffd"/></g><g><path d="m105.239 185.798h361.104v103.278h-361.104z" fill="#ffd508"/></g><g><path d="m450.818 444.334c.136-.019.267-.038.386-.057.05-.008.1-.017.15-.025-3.862.415-3.91.456-2.895.358.787-.088 1.573-.18 2.359-.276z" fill="#a2dffd"/></g><g><path d="m122.969 222.392h-14.265v-36.595h-73.975v274.723h73.975v-187.739c0-7.878 6.387-14.265 14.265-14.265 5.921 0 10.722-4.8 10.722-10.722v-14.681c0-5.92-4.801-10.721-10.722-10.721z" fill="#fcb54c"/></g><g><path d="m122.871 285.596h343.473v146.645h-343.473z" fill="#475770"/></g><g><path d="m374.181 389.392c8.066-15.923 12.369-34.076 11.741-53.287-1.909-58.365-49.907-105.415-108.298-106.228-61.427-.855-111.491 48.683-111.491 109.914 0 17.825 4.243 34.658 11.774 49.546 9.32 18.425-3.93 40.204-24.578 40.204-15.254 0-27.621-12.366-27.621-27.621v-116.324h-90.979v174.924h431.615v-30.979h-67.556c-20.622 0-33.925-21.753-24.607-40.149z" fill="#323b49"/></g><g><path d="m166.181 318.475c-.03 1.052-.048 2.107-.048 3.166 0 60.71 49.215 109.925 109.925 109.925s109.925-49.215 109.925-109.925c0-1.059-.019-2.114-.048-3.166z" fill="#a2dffd"/></g><g><path d="m276.057 211.716c-60.71 0-109.925 49.215-109.925 109.925h219.85c0-60.71-49.215-109.925-109.925-109.925z" fill="#fff"/></g><g><path d="m274.088 225.454c-26.782.538-50.875 12.023-67.997 30.16v98.598c0 29.388 20.325 54.973 49.013 61.347 6.745 1.499 13.757 2.289 20.953 2.289 53.589 0 96.944-43.814 96.197-97.574-.737-53.107-45.065-95.887-98.166-94.82z" fill="#323b49"/></g><g><path d="m329.378 332.317c0-29.448-23.873-53.321-53.321-53.321-11.882 0-22.855 3.886-31.719 10.457-7.054 5.229-16.384-2.319-12.682-10.281.184-.396.371-.791.561-1.184 8.912-18.5-15.95-34.435-29.311-18.843-14.304 16.694-23.055 38.423-23.055 62.495 0 49.929 37.323 88.934 82.894 95.337 8.963 1.259 13.321-10.676 5.627-15.443-.243-.15-.485-.302-.726-.455-7.275-4.597-3.78-15.997 4.813-15.52 28.326 1.576 56.919-19.659 56.919-53.242z" fill="#1b1e21"/></g><g><path d="m329.378 321.641c0 17.231-8.173 32.553-20.854 42.3-8.991 6.912-20.249 6.598-32.467 6.598-29.448 0-49.639-17.932-49.639-47.38 0-5.9-2.724-13.094-.955-18.399 7.062-21.175 27.045-36.44 50.593-36.44 29.45 0 53.322 23.872 53.322 53.321z" fill="#82abca"/></g><g><path d="m283.13 357.14c-26.395-2.195-47.363-23.96-48.689-50.412-.01-.198-.019-.396-.027-.594-.2-5.097-7.336-6.212-8.95-1.374-2.053 6.154-3.015 12.807-2.654 19.73 1.462 28.085 25.052 50.434 53.176 50.471 12.246.016 23.527-4.098 32.533-11.026 4.585-3.527.686-10.779-4.834-9.046-6.413 2.015-13.349 2.85-20.555 2.251z" fill="#4a82ae"/></g><g><path d="m307.345 347.348h-62.575c-3.774 0-6.834-3.06-6.834-6.834v-37.747c0-3.774 3.06-6.834 6.834-6.834h62.576c3.774 0 6.834 3.06 6.834 6.834v37.747c-.001 3.774-3.061 6.834-6.835 6.834z" fill="#1b1e21"/></g><g><path d="m123.649 247.84h-46.21c-5.546 0-10.042-4.496-10.042-10.042v-16.04c0-5.546 4.496-10.042 10.042-10.042h46.21c5.546 0 10.042 4.496 10.042 10.042v16.04c0 5.546-4.496 10.042-10.042 10.042z" fill="#1b1e21"/></g><g><path d="m396.555 239.152h47.447v15.578h-47.447z" fill="#323b49"/></g><g><circle cx="164.635" cy="228.911" fill="#fff" r="9.082"/></g><g><circle cx="276.057" cy="321.641" fill="#475770" r="21.775"/></g><g><circle cx="261.424" cy="310.753" fill="#fff" r="10.887"/></g><g><circle cx="279.408" cy="326.269" fill="#fff" r="6.637"/></g></g></g></svg>