<?xml version="1.0"?>
<svg xmlns="http://www.w3.org/2000/svg" xmlns:xlink="http://www.w3.org/1999/xlink" id="Gradient" viewBox="0 0 512 512" width="512" height="512"><defs><linearGradient id="linear-gradient" x1="256" y1="496" x2="256" y2="16" gradientUnits="userSpaceOnUse"><stop offset="0" stop-color="#12c2e9"/><stop offset="0.5" stop-color="#c471ed"/><stop offset="1" stop-color="#f64f59"/></linearGradient></defs><path d="M392,48a104.462,104.462,0,0,0-42.239,8.947,127.885,127.885,0,0,0-187.579,0A104.006,104.006,0,1,0,93.621,252.623L120,408.672V488a8,8,0,0,0,8,8H384a8,8,0,0,0,8-8V408.672l26.379-156.049A104.014,104.014,0,0,0,392,48ZM376,480H136V416H376Zm33.771-241.794a8,8,0,0,0-6.281,6.5L377.239,400H328.592l7.387-103.43h-.008c.014-.189.029-.377.029-.569a8,8,0,0,0-15.971-.569h-.008L312.551,400H264V312a8,8,0,0,0-16,0v88H199.449l-7.47-104.57h-.008A8,8,0,0,0,176,296c0,.192.015.38.029.569h-.008L183.408,400H134.761L108.51,244.709a8,8,0,0,0-6.281-6.5A88.009,88.009,0,1,1,208,152a8,8,0,0,0,16,0,103.994,103.994,0,0,0-47.262-87.116,112.016,112.016,0,0,1,187.237,49.244,8,8,0,1,0,15.422-4.256,126.93,126.93,0,0,0-19.08-39.994A87.115,87.115,0,0,1,392,64a88.01,88.01,0,0,1,17.771,174.206Z" style="fill:url(#linear-gradient)"/></svg>
