<svg height="512" viewBox="0 0 128 128" width="512" xmlns="http://www.w3.org/2000/svg"><g><path d="m106.93 54.361h-3.5v-2.144a39.43 39.43 0 0 0 -78.86 0v2.144h-3.5v-2.144a42.93 42.93 0 0 1 85.86 0z" fill="#1a89ff"/><path d="m90.18 118.35h-26.18v-3.5h26.18a13.265 13.265 0 0 0 13.25-13.25v-6.515h3.5v6.515a16.769 16.769 0 0 1 -16.75 16.75z" fill="#1a89ff"/><g fill="#27b2ff"><path d="m14.077 89.9h-4.077a3 3 0 0 1 -3-3v-24.349a3 3 0 0 1 3-3h4.077z"/><path d="m113.923 89.9h4.077a3 3 0 0 0 3-3v-24.349a3 3 0 0 0 -3-3h-4.077z"/><path d="m93.83 24.29a3.986 3.986 0 0 1 -5.3.037 37.144 37.144 0 0 0 -49.06 0 3.986 3.986 0 0 1 -5.3-.037l-3.237-2.914a45.218 45.218 0 0 1 66.134 0z"/><path d="m67.49 121h-6.981a4.4 4.4 0 0 1 -4.4-4.4 4.4 4.4 0 0 1 4.4-4.4h6.981a4.4 4.4 0 0 1 4.4 4.4 4.4 4.4 0 0 1 -4.4 4.4z"/></g><path d="m14.077 54.361h12.486a5 5 0 0 1 5 5v30.724a5 5 0 0 1 -5 5h-12.486a0 0 0 0 1 0 0v-40.724a0 0 0 0 1 0 0z" fill="#fb9700"/><path d="m96.437 54.361h12.486a5 5 0 0 1 5 5v30.724a5 5 0 0 1 -5 5h-12.486a0 0 0 0 1 0 0v-40.724a0 0 0 0 1 0 0z" fill="#fb9700" transform="matrix(-1 0 0 -1 210.36 149.446)"/></g></svg>