<svg xmlns="http://www.w3.org/2000/svg" xmlns:xlink="http://www.w3.org/1999/xlink" id="Capa_1" x="0" y="0" version="1.1" viewBox="0 0 512.001 512.001" style="enable-background:new 0 0 512.001 512.001" xml:space="preserve"><path style="fill:#55d4be" d="M148.754,344.012H85.185c-11.702,0-21.19-9.487-21.19-21.19V149.194	c0-11.702,9.487-21.19,21.19-21.19h63.57c11.702,0,21.19,9.487,21.19,21.19v173.628	C169.944,334.524,160.457,344.012,148.754,344.012z"/><path style="fill:#24bfb2" d="M85.185,312.226V128.004c-11.702,0-21.19,9.487-21.19,21.19v173.628	c0,11.702,9.487,21.19,21.19,21.19h63.57c11.702,0,21.19-9.487,21.19-21.19H95.779C89.928,322.822,85.185,318.078,85.185,312.226z"/><circle style="fill:#f2edec" cx="116.965" cy="296.33" r="15.893"/><path style="fill:#fce780" d="M456.007,152.997L456.007,152.997c0-14.628-11.858-26.488-26.487-26.488H296.002	c0,0,11.335-13.852,16.001-46.507c8-56.002-12.083-77.511-32.001-79.941c-4.956-0.605-9.314,3.291-9.314,8.284	c0,0-5.029,52.342-14.686,71.656c-24.001,48.002-86.057,72.002-86.057,72.002v170.613c0,0,14.054,15.791,42.379,15.791	c67.678,0,196.007,0,196.007,0c14.628,0,26.487-11.858,26.487-26.487s-11.858-26.488-26.487-26.488h10.595	c14.628,0,26.487-11.858,26.487-26.488l0,0c0-14.628-11.858-26.487-26.487-26.487h10.595c14.628,0,26.487-11.858,26.487-26.488l0,0	c0-14.628-11.858-26.488-26.487-26.488C444.149,179.484,456.007,167.626,456.007,152.997z"/><path style="fill:#fee2ca" d="M456.007,152.997L456.007,152.997c0-14.628-11.858-26.488-26.487-26.488H296.002	c0,0,11.335-13.852,16.001-46.507c8-56.002-12.083-77.511-32.001-79.941c-4.956-0.605-9.314,3.291-9.314,8.284	c0,0-5.029,52.342-14.686,71.656c-24.001,48.002-86.057,72.002-86.057,72.002v170.613c0,0,14.054,15.791,42.379,15.791	c67.678,0,196.007,0,196.007,0c14.628,0,26.487-11.858,26.487-26.487s-11.858-26.488-26.487-26.488h10.595	c14.628,0,26.487-11.858,26.487-26.488l0,0c0-14.628-11.858-26.487-26.487-26.487h10.595c14.628,0,26.487-11.858,26.487-26.488l0,0	c0-14.628-11.858-26.488-26.487-26.488C444.149,179.484,456.007,167.626,456.007,152.997z"/><g><path style="fill:#fdd0ab" d="M408.33,322.408c0,0-128.328,0-196.007,0c-28.325,0-42.379-15.791-42.379-15.791v16.001 c0,0,14.054,15.791,42.379,15.791c67.678,0,196.007,0,196.007,0c14.628,0,26.487-11.858,26.487-26.487c0-2.789-0.434-5.476-1.233-8 C430.192,314.639,420.17,322.408,408.33,322.408z"/><path style="fill:#fdd0ab" d="M429.52,158.294h-26.487v21.19h26.487c14.628,0,26.487-11.858,26.487-26.487l0,0 c0-3.77-0.799-7.348-2.219-10.595C449.7,151.753,440.379,158.294,429.52,158.294z"/><path style="fill:#fdd0ab" d="M429.52,211.269h-26.487v21.19h26.487c14.628,0,26.487-11.858,26.487-26.487l0,0 c0-3.77-0.799-7.348-2.219-10.595C449.7,204.728,440.379,211.269,429.52,211.269z"/><path style="fill:#fdd0ab" d="M418.925,264.244h-15.893v21.19h15.893c14.628,0,26.488-11.858,26.488-26.487l0,0 c0-3.77-0.799-7.348-2.219-10.595C439.104,257.703,429.784,264.244,418.925,264.244z"/></g><g><path style="fill:#fa892d" d="M321.454,420.073h-44.551l-13.767-42.371c-1.004-3.091-3.884-5.183-7.133-5.183 c-3.249,0-6.129,2.092-7.133,5.183l-13.767,42.371h-44.551c-3.249,0-6.129,2.092-7.133,5.183c-1.004,3.09,0.096,6.476,2.725,8.385 l36.043,26.188l-13.767,42.371c-0.961,2.955,0.049,6.284,2.49,8.207c2.608,2.055,6.365,2.13,9.051,0.178l36.043-26.188 l36.043,26.188c2.819,2.048,6.781,1.851,9.386-0.459c2.209-1.959,3.068-5.117,2.155-7.925l-13.767-42.371l36.043-26.188 c2.629-1.909,3.729-5.295,2.725-8.385C327.582,422.164,324.703,420.073,321.454,420.073z"/><path style="fill:#fa892d" d="M511.142,425.255c-1.004-3.091-3.884-5.183-7.133-5.183h-44.551l-13.767-42.371 c-0.992-3.055-3.921-5.183-7.133-5.183c-3.212,0-6.14,2.127-7.133,5.183l-13.767,42.371h-44.552c-3.249,0-6.129,2.092-7.133,5.183 c-1.004,3.09,0.096,6.476,2.725,8.385l36.043,26.188L390.971,502.2c-0.961,2.955,0.049,6.284,2.49,8.207 c2.608,2.055,6.365,2.13,9.051,0.178l36.043-26.188l36.043,26.188c2.819,2.048,6.781,1.851,9.387-0.459 c2.209-1.959,3.068-5.117,2.155-7.925l-13.767-42.371l36.043-26.188C511.046,431.731,512.147,428.345,511.142,425.255z"/><path style="fill:#fa892d" d="M138.898,420.073H94.345l-13.767-42.371c-1.004-3.091-3.884-5.183-7.133-5.183 s-6.129,2.092-7.133,5.183l-13.767,42.371H7.992c-3.249,0-6.129,2.092-7.133,5.183c-1.004,3.09,0.096,6.476,2.725,8.385 l36.043,26.188L25.86,502.201c-0.961,2.955,0.049,6.284,2.49,8.207c2.608,2.055,6.365,2.13,9.052,0.178l36.043-26.188 l36.043,26.188c2.819,2.048,6.781,1.851,9.386-0.459c2.209-1.959,3.068-5.117,2.155-7.925l-13.767-42.371l36.043-26.188 c2.629-1.909,3.729-5.295,2.725-8.385C145.027,422.164,142.147,420.073,138.898,420.073z"/></g></svg>